<svg width="137" height="29" viewBox="0 0 177 29" fill="none" xmlns="http://www.w3.org/2000/svg">
<path d="M1 11.7788C44.8628 8.35174 88.7291 4.53595 132.684 2.52188C141.197 2.13179 156.214 1.65974 165.254 1.40359C168.618 1.30829 178.63 0.584613 175.348 1.34147C131.269 11.5073 86.2176 17.2158 41.7738 25.4466C38.6411 26.0268 35.3432 26.632 32.1979 27.3104C31.467 27.4681 29.3239 27.66 30.0327 27.9006C30.8936 28.193 31.842 27.7541 32.7469 27.6832C38.2174 27.2546 43.7053 27.0249 49.1845 26.7513C60.2174 26.2004 71.3493 25.3709 82.3951 26.0679C86.2935 26.3139 87.3552 26.3893 83.8895 27.9938" stroke="#09EFD3" stroke-width="1.5" stroke-linecap="round"/>
</svg>
